<?xml version="1.0" standalone="no"?>
<!DOCTYPE svg PUBLIC "-//W3C//DTD SVG 20010904//EN"
 "http://www.w3.org/TR/2001/REC-SVG-20010904/DTD/svg10.dtd">
<svg version="1.0" xmlns="http://www.w3.org/2000/svg"
 width="726.000000pt" height="726.000000pt" viewBox="0 0 726.000000 726.000000"
 preserveAspectRatio="xMidYMid meet">

<g transform="translate(0.000000,726.000000) scale(0.100000,-0.100000)"
fill="#000000" stroke="none">
<path d="M3305 7245 c-736 -76 -1375 -335 -1939 -784 -1242 -991 -1694 -2685
-1113 -4171 266 -682 736 -1267 1357 -1689 447 -304 968 -505 1521 -585 83
-13 198 -16 515 -16 450 0 516 6 802 71 170 38 475 139 645 212 278 120 576
301 827 501 155 124 437 404 554 551 400 502 663 1097 761 1721 24 150 25 182
25 559 0 425 -7 518 -60 764 -151 703 -511 1353 -1027 1851 -582 563 -1305
907 -2111 1006 -181 22 -582 27 -757 9z m620 -55 c348 -28 688 -106 1000 -227
460 -179 861 -436 1219 -783 439 -426 769 -977 939 -1572 83 -288 125 -568
134 -888 16 -598 -98 -1134 -356 -1665 -453 -934 -1296 -1629 -2306 -1900
-126 -34 -370 -82 -495 -98 -126 -17 -742 -15 -835 1 -33 6 -116 20 -184 32
-599 100 -1162 352 -1636 733 -700 562 -1153 1336 -1299 2221 -38 228 -45 322
-46 581 0 408 54 742 184 1130 174 520 442 962 820 1353 523 540 1182 895
1916 1031 297 56 653 75 945 51z"/>
<path d="M3375 7023 c-257 -13 -655 -96 -910 -188 -219 -79 -453 -195 -666
-328 -879 -548 -1469 -1490 -1581 -2522 -20 -181 -17 -608 5 -780 23 -178 45
-310 59 -344 6 -14 10 -30 9 -35 -1 -4 3 -14 10 -22 6 -7 8 -18 5 -23 -4 -5
-2 -12 4 -16 6 -4 8 -10 5 -15 -8 -13 15 -100 35 -135 10 -16 15 -36 13 -42
-3 -7 5 -28 16 -47 12 -18 21 -45 21 -60 0 -53 153 -392 260 -576 170 -293
404 -582 649 -804 399 -361 838 -607 1352 -761 82 -24 185 -51 231 -59 46 -8
116 -22 155 -31 40 -8 117 -17 171 -18 53 -2 102 -6 108 -10 18 -10 409 -21
430 -12 11 5 80 10 154 11 196 3 483 57 741 140 1142 368 2000 1281 2293 2439
27 106 56 268 78 425 20 147 17 681 -5 838 -82 579 -275 1070 -604 1539 -231
330 -576 663 -918 885 -197 129 -415 245 -575 305 -132 50 -282 102 -365 126
-84 24 -312 74 -380 83 -328 42 -528 51 -800 37z m-1910 -2043 c18 -20 18 -23
-18 -133 -19 -62 -79 -254 -132 -427 -53 -173 -125 -405 -160 -515 -177 -553
-197 -630 -209 -771 -6 -74 -2 -104 17 -104 26 0 85 86 149 220 267 555 363
727 526 945 148 198 326 375 482 480 65 44 124 48 167 11 25 -22 28 -31 31
-103 4 -81 -25 -250 -69 -412 -12 -41 -23 -85 -25 -99 -3 -14 -7 -29 -9 -32
-7 -11 -132 -472 -139 -513 -9 -49 13 -87 51 -87 27 0 74 42 129 117 178 239
373 434 450 449 82 15 141 -16 175 -91 17 -38 50 -207 64 -325 11 -95 43 -227
64 -269 41 -80 110 -108 185 -77 44 19 77 55 139 155 79 129 294 362 370 403
62 33 107 19 107 -34 0 -20 -7 -32 -25 -40 -23 -10 -23 -12 -10 -39 19 -35 42
-42 135 -42 91 1 181 23 276 69 106 50 145 99 227 285 82 184 112 233 150 237
21 3 29 -2 38 -22 11 -22 7 -38 -30 -120 -38 -87 -77 -200 -87 -251 -2 -11
-10 -48 -17 -83 -16 -76 -9 -155 14 -160 9 -2 60 38 118 93 108 100 161 135
209 135 57 0 91 -71 102 -213 7 -80 12 -102 29 -118 28 -27 60 -24 111 11 25
16 63 41 84 56 22 14 56 29 77 31 41 6 59 -8 123 -91 56 -75 122 -94 195 -57
21 11 74 53 118 93 44 40 108 93 143 118 34 25 83 62 107 83 52 44 113 77 142
77 26 0 55 -43 46 -69 -3 -11 -19 -22 -35 -26 -37 -8 -43 -18 -35 -55 7 -34
15 -37 125 -49 94 -10 129 -3 323 61 164 54 176 54 201 15 8 -12 8 -22 0 -34
-13 -21 -197 -92 -328 -128 -49 -13 -98 -32 -108 -42 -32 -28 -65 -103 -71
-160 -23 -201 -200 -325 -345 -243 -48 27 -75 64 -91 127 -6 23 -23 55 -37 72
-35 42 -73 48 -145 21 -84 -32 -172 -26 -223 15 -82 66 -99 75 -140 75 -48 0
-69 -12 -153 -92 -34 -32 -82 -68 -108 -79 -39 -17 -49 -18 -73 -7 -38 18 -78
98 -90 180 -16 109 -45 125 -107 61 -37 -38 -137 -194 -216 -337 -49 -86 -139
-193 -177 -207 -16 -6 -32 -5 -50 3 -49 24 -65 183 -37 358 31 185 20 220 -64
220 -91 -1 -160 -52 -182 -134 -39 -144 -88 -221 -172 -271 -95 -55 -177 -42
-268 41 -57 52 -76 60 -134 54 -21 -2 -24 -3 -94 -57 -25 -19 -65 -36 -96 -43
-47 -10 -60 -9 -98 8 -55 25 -110 81 -142 146 -24 50 -57 193 -90 385 -20 115
-34 151 -71 180 -34 27 -78 24 -124 -9 -29 -21 -131 -140 -320 -376 -135 -167
-159 -194 -209 -226 -57 -36 -92 -36 -133 1 -32 28 -32 30 -36 133 -7 195 31
381 163 788 88 269 98 327 66 359 -25 25 -51 27 -91 6 -69 -36 -222 -222 -397
-485 -63 -95 -107 -167 -214 -355 -46 -80 -410 -822 -444 -905 -32 -77 -88
-182 -124 -228 -50 -67 -110 -60 -130 15 -40 143 41 617 187 1098 109 357 395
1243 418 1295 22 49 48 76 75 79 3 1 14 -8 24 -19z"/>
<path d="M5905 3496 c-34 -45 -65 -127 -65 -172 0 -121 126 -150 180 -40 11
23 20 52 20 64 0 25 -45 149 -61 169 -19 22 -47 14 -74 -21z"/>
<path d="M3636 3475 c-26 -28 -50 -103 -49 -151 3 -105 106 -110 142 -7 12 34
12 48 1 87 -13 48 -44 96 -61 96 -6 0 -20 -11 -33 -25z"/>
</g>
</svg>
